<?xml version="1.0" standalone="no"?>
<!DOCTYPE svg PUBLIC "-//W3C//DTD SVG 20010904//EN"
 "http://www.w3.org/TR/2001/REC-SVG-20010904/DTD/svg10.dtd">
<svg version="1.0" xmlns="http://www.w3.org/2000/svg"
 width="128.000000pt" height="128.000000pt" viewBox="0 0 128.000000 128.000000"
 preserveAspectRatio="xMidYMid meet">
<metadata>
Created by potrace 1.11, written by Peter Selinger 2001-2013
</metadata>
<g transform="translate(0.000000,128.000000) scale(0.100000,-0.100000)"
fill="#000000" stroke="none">
<path d="M198 1246 c-38 -7 -73 -17 -80 -24 -20 -20 -16 -52 10 -73 14 -10 21
-19 16 -19 -4 0 -3 -5 3 -11 8 -8 8 -20 3 -34 -6 -16 -5 -27 4 -34 7 -6 11
-25 9 -43 -2 -18 -5 -102 -8 -186 -2 -84 -7 -157 -10 -162 -3 -5 -2 -18 4 -28
5 -10 6 -24 1 -32 -5 -8 -7 -17 -5 -20 1 -3 6 -68 10 -145 4 -77 9 -143 11
-146 2 -3 -3 -15 -10 -25 -10 -13 -11 -24 -5 -36 7 -14 3 -25 -20 -48 -23 -25
-28 -38 -26 -67 2 -20 10 -40 17 -45 31 -20 127 -36 256 -43 40 -3 77 -7 82
-10 5 -3 11 -1 15 4 4 7 15 7 30 1 14 -5 25 -6 25 -1 0 5 14 8 30 7 16 0 30
-5 30 -11 0 -5 4 -5 8 2 4 6 32 14 62 18 30 4 63 11 73 16 9 5 17 7 17 4 0 -4
7 1 16 9 13 14 19 49 15 93 0 6 -9 14 -19 17 -26 9 -28 46 -19 316 3 99 1 160
-5 168 -7 8 -7 17 2 27 12 14 11 72 -6 292 -3 40 -1 80 5 90 6 12 6 25 0 35
-7 13 -4 23 12 39 30 30 33 78 5 90 -65 28 -426 37 -558 15z m62 -128 c0 -5 4
-6 10 -3 6 3 7 -1 3 -10 -3 -9 -9 -12 -12 -7 -4 6 -11 4 -19 -4 -12 -13 -8
-18 11 -15 5 1 5 -4 2 -10 -12 -18 -38 15 -31 38 6 19 36 28 36 11z m403 6 c3
-4 2 -15 -4 -26 -8 -15 -7 -24 4 -36 8 -9 13 -26 10 -37 -2 -11 -5 -33 -6 -49
l-2 -29 -97 -3 c-54 -2 -98 1 -98 6 0 5 12 7 26 4 21 -4 25 -2 20 11 -4 11 -2
15 6 12 7 -2 12 -9 11 -14 -1 -5 4 -10 12 -10 8 0 12 4 9 9 -8 12 10 10 26 -4
12 -11 12 -10 1 5 -13 16 -2 25 12 10 11 -11 56 -12 63 -2 3 5 0 16 -6 24 -10
11 -10 15 -1 15 7 0 9 5 6 10 -4 6 -11 8 -16 5 -5 -4 -9 -1 -9 5 0 7 7 10 18
6 16 -6 16 -5 -1 8 -14 10 -15 15 -5 19 7 3 -8 4 -34 3 -26 -2 -45 0 -43 4 2
4 -2 7 -10 7 -11 0 -12 -4 -3 -14 8 -11 6 -13 -13 -10 -12 2 -25 10 -27 17 -3
7 0 10 7 6 6 -4 11 -2 11 4 0 7 6 10 14 7 7 -3 19 0 26 6 10 9 11 9 6 0 -4 -7
-2 -13 3 -13 6 0 11 6 11 13 0 7 3 8 8 2 10 -14 32 -17 32 -4 0 5 6 7 13 4 6
-4 4 0 -5 8 -18 14 -14 27 7 27 6 0 15 -3 18 -6z m-128 -22 c-3 -3 -11 0 -18
7 -9 10 -8 11 6 5 10 -3 15 -9 12 -12z m-28 -7 c4 -4 2 -5 -4 -1 -7 4 -13 2
-13 -4 0 -6 -4 -8 -10 -5 -5 3 -10 10 -10 15 0 10 27 7 37 -5z m-170 -27 c-3
-7 -5 -2 -5 12 0 14 2 19 5 13 2 -7 2 -19 0 -25z m-27 2 c-6 -11 -13 -20 -16
-20 -2 0 0 9 6 20 6 11 13 20 16 20 2 0 0 -9 -6 -20z m154 -4 c-3 -7 2 -13 11
-13 8 0 15 5 15 10 0 5 7 3 16 -4 20 -17 45 -20 59 -9 15 13 57 0 51 -15 -2
-7 1 -18 7 -24 6 -6 7 -11 2 -11 -5 0 0 -7 11 -16 18 -15 18 -15 -3 -5 -29 14
-36 14 -27 -1 5 -9 2 -9 -9 1 -19 15 -23 32 -6 29 6 -2 13 5 14 16 3 14 1 16
-8 7 -17 -17 -27 -13 -20 7 7 16 6 16 -11 0 -18 -18 -42 -25 -32 -10 3 5 -1 9
-9 9 -8 0 -15 -4 -15 -9 0 -4 6 -8 13 -8 8 0 7 -4 -3 -11 -12 -8 -11 -9 5 -5
16 5 21 1 22 -15 2 -17 -1 -19 -10 -10 -16 16 -40 14 -34 -3 4 -11 0 -13 -16
-10 -12 3 -28 6 -34 6 -15 1 -16 8 -4 26 7 11 10 10 15 -3 10 -26 30 -12 31
22 0 18 -4 30 -13 30 -7 0 -11 -6 -8 -13 3 -8 1 -16 -4 -19 -10 -6 -15 9 -10
30 1 6 -2 7 -6 2 -4 -4 -9 -15 -10 -25 -2 -9 -5 -30 -8 -45 -4 -25 -2 -26 11
-15 14 11 15 11 11 -2 -2 -8 -11 -15 -19 -15 -22 0 -21 80 2 106 10 12 16 26
12 32 -3 6 -1 7 5 3 6 -4 9 -12 6 -20z m-134 -20 c0 -2 -7 -7 -16 -10 -8 -3
-12 -2 -9 4 6 10 25 14 25 6z m-25 -34 c-3 -3 -11 0 -18 7 -9 10 -8 11 6 5 10
-3 15 -9 12 -12z m182 -7 c0 -8 -4 -15 -9 -15 -10 0 -11 14 -1 23 9 10 10 9
10 -8z m83 -7 c0 -12 -3 -18 -7 -14 -11 10 -12 36 -2 36 5 0 9 -10 9 -22z
m-285 -26 c-3 -3 -11 0 -18 7 -9 10 -8 11 6 5 10 -3 15 -9 12 -12z m378 -209
c-5 -142 -5 -121 -2 -219 2 -44 -1 -86 -6 -94 -5 -9 -4 -15 3 -18 7 -2 9 -9 5
-15 -11 -18 -12 -37 -3 -37 5 0 7 -10 5 -22 -3 -12 0 -27 6 -34 6 -8 6 -14 0
-18 -6 -4 -5 -17 2 -35 9 -23 8 -32 -5 -45 -19 -19 -38 -21 -38 -5 0 8 -6 7
-17 -2 -11 -10 -14 -10 -9 -1 4 6 4 12 -1 13 -31 3 -48 10 -70 31 -13 13 -28
23 -31 23 -4 0 -6 3 -4 8 1 4 -8 7 -20 7 -19 0 -20 2 -8 10 8 5 10 10 5 10 -7
0 -11 33 -11 85 0 47 3 80 7 73 4 -7 6 -15 3 -19 -2 -4 0 -11 6 -14 8 -5 7
-11 -1 -21 -9 -11 -8 -14 2 -14 11 0 11 -3 -1 -11 -13 -9 -12 -10 2 -5 10 3
20 1 23 -4 6 -10 -9 -14 -30 -10 -5 1 -4 -4 2 -11 10 -10 10 -16 0 -28 -8 -9
-8 -12 -1 -8 11 6 28 -26 25 -46 -1 -5 3 -6 8 -3 5 3 8 17 6 31 -1 16 2 24 9
22 6 -2 11 -12 11 -23 0 -25 14 -46 26 -39 13 8 11 26 -2 23 -6 -2 -13 9 -14
24 -3 19 0 25 10 22 8 -3 11 -12 9 -19 -3 -7 -1 -16 5 -20 7 -4 9 1 5 12 -3
11 0 10 8 -5 10 -16 17 -19 25 -11 8 8 13 6 17 -9 4 -11 15 -22 26 -25 13 -3
17 -1 13 9 -3 8 -10 11 -16 7 -5 -3 -7 -1 -3 5 3 5 0 12 -6 15 -10 4 -11 7 0
18 23 24 12 30 -17 9 l-30 -20 1 30 c1 28 18 56 18 29 0 -7 8 -5 20 6 23 21
19 35 -5 15 -8 -7 -15 -9 -15 -5 0 4 -7 2 -15 -5 -17 -14 -20 -3 -5 20 9 13
11 13 20 0 5 -8 10 -13 11 -10 0 3 2 13 4 23 4 23 -10 22 -35 -3 -11 -11 -20
-15 -20 -10 0 6 -5 9 -11 8 -6 -2 -14 3 -17 11 -3 9 0 11 8 6 9 -5 11 -4 6 3
-4 7 -2 12 3 12 6 0 11 -7 11 -15 0 -12 7 -11 36 7 32 21 46 40 27 37 -5 -1
-6 -6 -5 -13 2 -6 0 -7 -5 -3 -4 5 -8 12 -8 15 0 4 -4 13 -8 19 -6 9 -3 11 9
6 12 -4 15 -3 10 5 -9 15 -36 15 -36 0 0 -6 -3 -8 -6 -5 -4 4 -1 14 7 23 13
16 11 17 -16 10 -28 -7 -28 -6 -11 7 13 9 15 16 8 21 -15 9 -56 -29 -47 -44 4
-6 16 -8 27 -4 18 5 20 3 13 -12 -4 -11 -8 -24 -8 -31 0 -7 -5 -9 -10 -6 -6 3
-7 1 -3 -5 3 -6 -7 -17 -23 -25 -28 -14 -29 -13 -28 4 1 14 7 18 22 14 11 -3
15 -2 8 1 -10 4 -10 8 0 19 7 7 16 10 21 7 5 -3 6 0 2 7 -6 9 -12 9 -24 -1
-14 -10 -15 -10 -5 2 9 10 10 17 1 27 -8 10 -7 18 4 31 29 34 32 45 9 37 -20
-6 -31 10 -12 17 5 2 -1 11 -14 21 -17 12 -26 14 -31 5 -4 -6 -3 -8 3 -5 6 4
16 0 23 -8 15 -17 7 -19 -21 -5 -12 7 -17 18 -15 33 3 12 5 28 5 34 1 14 91
103 103 103 4 0 26 25 49 55 23 30 42 55 43 55 1 0 1 -53 -1 -117z m-363 22
c47 -49 69 -98 50 -110 -6 -3 -6 -15 0 -29 5 -13 7 -26 5 -28 -3 -2 -5 -19 -7
-36 -1 -22 -7 -31 -15 -28 -17 7 -17 -10 0 -18 6 -4 2 -4 -11 -2 -17 3 -22 1
-18 -10 3 -8 1 -14 -5 -14 -16 0 -41 -29 -34 -39 3 -5 0 -13 -6 -17 -8 -5 -9
-3 -4 7 6 11 5 11 -4 3 -10 -9 -10 -17 -1 -34 10 -19 10 -21 -5 -13 -15 9 -17
33 -17 219 1 257 0 244 14 219 6 -11 32 -42 58 -70z m206 -227 c5 -7 3 -8 -6
-3 -10 6 -12 4 -6 -11 5 -14 4 -16 -5 -7 -6 6 -8 16 -5 22 9 14 13 14 22 -1z
m-21 -58 c4 -6 10 -8 15 -5 5 3 8 -4 7 -15 -2 -26 -23 -33 -24 -7 -1 11 -8 24
-15 28 -9 6 -9 9 -1 9 6 0 15 -5 18 -10z m-180 -10 c-3 -5 -2 -10 4 -10 5 0
11 5 13 10 2 6 9 0 17 -12 9 -16 10 -20 1 -11 -9 8 -19 9 -31 3 -14 -8 -17 -6
-14 8 5 23 4 22 11 22 3 0 2 -4 -1 -10z m30 -48 c-3 -3 -11 0 -18 7 -9 10 -8
11 6 5 10 -3 15 -9 12 -12z m-30 -2 c3 -5 1 -10 -4 -10 -6 0 -11 5 -11 10 0 6
2 10 4 10 3 0 8 -4 11 -10z m22 -26 c-3 -3 -12 -4 -19 -1 -8 3 -5 6 6 6 11 1
17 -2 13 -5z m212 -8 c6 -8 10 -19 9 -26 -2 -7 4 -15 12 -17 12 -4 12 -3 1 5
-7 6 -9 12 -4 15 6 4 15 -5 22 -20 10 -23 10 -25 -6 -18 -23 9 -33 10 -59 1
-15 -4 -21 -2 -21 9 0 8 3 15 7 15 3 0 14 6 25 13 14 11 15 16 5 22 -9 5 -11
4 -6 -3 4 -7 3 -12 -3 -12 -13 0 -22 15 -14 24 10 10 20 7 32 -8z m-219 -10
c20 -4 41 -46 34 -68 -3 -11 0 -18 8 -18 11 0 11 -2 0 -9 -8 -4 -14 -12 -13
-17 0 -5 -7 -8 -15 -8 -11 2 -12 -1 -3 -12 11 -13 7 -16 -17 -13 -3 0 -12 -8
-19 -18 -7 -10 -18 -19 -24 -19 -6 -1 -12 -2 -13 -4 -2 -1 -11 -3 -21 -5 -15
-3 -18 1 -13 17 3 12 1 29 -4 39 -7 12 -5 21 8 30 16 13 16 13 2 -5 -14 -18
-13 -19 4 -13 16 6 17 5 6 -8 -8 -10 -9 -15 -1 -15 6 0 18 11 27 25 9 14 20
22 25 19 13 -8 11 -24 -2 -22 -14 4 -21 -30 -8 -38 5 -3 8 0 7 8 -2 7 4 12 13
12 11 -1 15 5 12 16 -3 12 2 20 17 25 16 5 19 10 10 15 -15 10 -15 21 2 31 10
7 10 9 0 9 -7 0 -11 4 -8 8 2 4 -4 8 -15 8 -10 0 -19 -4 -19 -8 0 -4 8 -8 18
-8 16 -1 16 -1 -1 -11 -13 -7 -16 -17 -11 -32 7 -22 7 -22 -15 -3 -12 11 -18
22 -13 25 5 3 8 16 7 28 -1 15 3 20 17 18 9 -2 20 0 22 4 3 4 -1 8 -9 9 -8 1
-22 3 -30 4 -8 1 -15 6 -15 11 0 5 8 6 18 2 9 -4 24 -8 32 -9z m-73 -31 c0 -8
-4 -15 -9 -15 -10 0 -11 14 -1 23 9 10 10 9 10 -8z m-12 -45 c3 -5 1 -10 -4
-10 -6 0 -11 5 -11 10 0 6 2 10 4 10 3 0 8 -4 11 -10z m92 -5 c0 -8 -4 -12 -9
-9 -4 3 -8 9 -8 15 0 5 4 9 8 9 5 0 9 -7 9 -15z"/>
<path d="M633 425 c0 -8 4 -12 9 -9 5 3 6 10 3 15 -9 13 -12 11 -12 -6z"/>
<path d="M630 365 c-7 -8 -16 -13 -19 -10 -4 2 -8 -2 -8 -10 0 -11 4 -12 21
-2 12 6 24 10 28 9 4 -1 5 5 2 13 -7 19 -9 19 -24 0z"/>
<path d="M645 320 c-3 -5 1 -10 10 -10 9 0 13 5 10 10 -3 6 -8 10 -10 10 -2 0
-7 -4 -10 -10z"/>
<path d="M547 263 c13 -12 32 -20 43 -18 11 2 20 0 20 -4 0 -7 31 -8 49 -2 2
0 -8 12 -22 25 -27 25 -49 28 -69 8 -9 -9 -15 -9 -28 1 -9 6 -6 2 7 -10z m88
-11 l20 -14 -20 7 c-11 4 -26 8 -32 8 -7 0 -13 5 -13 11 0 6 -5 4 -10 -4 -5
-8 -10 -10 -10 -4 0 26 25 25 65 -4z"/>
<path d="M250 245 c-7 -8 -11 -15 -9 -16 37 -7 40 -7 30 5 -6 7 -8 16 -4 19 3
4 4 7 1 7 -3 0 -11 -7 -18 -15z"/>
<path d="M815 150 c-3 -6 1 -7 9 -4 18 7 21 14 7 14 -6 0 -13 -4 -16 -10z"/>
<path d="M795 120 c3 -5 8 -10 11 -10 2 0 4 5 4 10 0 6 -5 10 -11 10 -5 0 -7
-4 -4 -10z"/>
<path d="M820 119 c0 -5 5 -7 10 -4 6 3 10 8 10 11 0 2 -4 4 -10 4 -5 0 -10
-5 -10 -11z"/>
</g>
</svg>
